# xmcd
#
# Track frame offsets: 
#        150
#        12775
#        29492
#        42467
#        57167
#        72745
#        90057
#        106327
#        120210
#        141012
#        155740
#        166200
#
# Disc length: 2436 seconds
#
# Revision: 0
# Processed by: cddbd v1.5.1PL0 Copyright (c) Steve Scherf et al.
# Submitted via: ExactAudioCopy v0.90b4
#
DISCID=9509820c
DTITLE=Various Artist - 4 Azes
DYEAR=1900
DGENRE=Country
TTITLE0=Tião Carreiro and Paraíso - Uma Flor E Uma Santa
TTITLE1=Tião Carreiro and Paraíso - Homem Até Debaixo D'Água
TTITLE2=Tião Carreiro and Paraíso - Pagode Em Brasília
TTITLE3=Tião Carreiro and Paraíso - A Vaca Já Foi Pro Brejo
TTITLE4=Tião Carreiro and Paraíso - Boiadero É Boi Também
TTITLE5=Tião Carreiro and Paraíso - Carga Pesada
TTITLE6=Pardinho and Pardal - Rei Dos Delegados
TTITLE7=Pardinho and Pardal - Horas Perdidas
TTITLE8=Pardinho and Pardal - O Menino Da Tábua
TTITLE9=Pardinho and Pardal - Carreteiro Do Brasil
TTITLE10=Pardinho and Pardal - Amor Proibido
TTITLE11=Pardinho and Pardal - Os Milagres Do Menino Da Tábua
EXTD=
EXTT0=
EXTT1=
EXTT2=
EXTT3=
EXTT4=
EXTT5=
EXTT6=
EXTT7=
EXTT8=
EXTT9=
EXTT10=
EXTT11=
PLAYORDER=
